<svg xmlns="http://www.w3.org/2000/svg" viewBox="0 0 180 40" fill="none">
  <path d="M12 4a16 16 0 1 0 0 32 16 16 0 0 0 0-32z" fill="#01db5d" opacity=".15"/>
  <path d="M12 8a12 12 0 1 0 0 24 12 12 0 0 0 0-24z" fill="#01db5d" opacity=".25"/>
  <path d="M12 12a8 8 0 1 0 0 16 8 8 0 0 0 0-16z" fill="#01db5d" opacity=".4"/>
  <circle cx="12" cy="20" r="4" fill="#01db5d"/>
  <line x1="12" y1="4" x2="12" y2="8" stroke="#01db5d" stroke-width="1.5" stroke-linecap="round"/>
  <line x1="12" y1="32" x2="12" y2="36" stroke="#01db5d" stroke-width="1.5" stroke-linecap="round"/>
  <line x1="4" y1="20" x2="0" y2="20" stroke="#01db5d" stroke-width="1.5" stroke-linecap="round"/>
  <line x1="20" y1="20" x2="24" y2="20" stroke="#01db5d" stroke-width="1.5" stroke-linecap="round"/>
  <line x1="5.66" y1="13.66" x2="7.41" y2="15.41" stroke="#01db5d" stroke-width="1.3" stroke-linecap="round"/>
  <line x1="18.34" y1="26.34" x2="16.59" y2="24.59" stroke="#01db5d" stroke-width="1.3" stroke-linecap="round"/>
  <line x1="5.66" y1="26.34" x2="7.41" y2="24.59" stroke="#01db5d" stroke-width="1.3" stroke-linecap="round"/>
  <line x1="18.34" y1="13.66" x2="16.59" y2="15.41" stroke="#01db5d" stroke-width="1.3" stroke-linecap="round"/>
  <text x="38" y="24" font-family="system-ui,-apple-system,sans-serif" font-weight="800" font-size="18" letter-spacing="-0.5" fill="#ffffff">DataSafari</text>
</svg>
